<?xml version="1.0" standalone="no"?>
<!DOCTYPE svg PUBLIC "-//W3C//DTD SVG 20010904//EN"
 "http://www.w3.org/TR/2001/REC-SVG-20010904/DTD/svg10.dtd">
<svg version="1.0" xmlns="http://www.w3.org/2000/svg"
 width="2048.000000pt" height="2048.000000pt" viewBox="0 0 2048.000000 2048.000000"
 preserveAspectRatio="xMidYMid meet">
<metadata>
Created by potrace 1.14, written by Peter Selinger 2001-2017
</metadata>
<g transform="translate(0.000000,2048.000000) scale(0.100000,-0.100000)"
fill="#000000" stroke="none">
<path d="M9905 20344 c-807 -37 -1426 -125 -2128 -300 -221 -55 -255 -65 -657
-194 -2004 -640 -3782 -1923 -5040 -3635 -1697 -2312 -2333 -5247 -1744 -8055
505 -2405 1857 -4529 3826 -6010 1407 -1059 3057 -1726 4818 -1949 655 -83
1404 -100 2055 -46 1827 150 3541 771 5034 1823 765 539 1481 1215 2074 1959
820 1028 1436 2220 1803 3488 346 1194 468 2454 358 3705 -178 2041 -997 4022
-2308 5585 -274 326 -732 800 -1021 1057 -1182 1048 -2537 1789 -4039 2207
-674 188 -1364 303 -2101 351 -159 11 -796 20 -930 14z"/>
</g>
</svg>
